<svg width="101" height="101" viewBox="0 0 101 101" fill="none" xmlns="http://www.w3.org/2000/svg">
<path d="M1.75781 50.6826C1.75781 23.6206 23.6958 1.68262 50.7578 1.68262C77.8198 1.68262 99.7578 23.6206 99.7578 50.6826C99.7578 77.7446 77.8198 99.6826 50.7578 99.6826C23.6958 99.6826 1.75781 77.7446 1.75781 50.6826Z" fill="#131313" fill-opacity="0.89"/>
<path d="M35.1605 44.9726C41.8985 44.9726 47.3785 39.4926 47.3785 32.7536C46.7645 16.5596 23.5515 16.5656 22.9375 32.7536C22.9375 39.4926 28.4165 44.9726 35.1545 44.9726H35.1605Z" fill="#41B1A0"/>
<path d="M81.5076 42.4998L68.8626 20.5897C68.1876 19.3867 66.3896 19.3867 65.7206 20.5897L53.0746 42.4937C52.3686 43.6777 53.2676 45.2337 54.6496 45.2148H79.9396C81.3156 45.2337 82.2146 43.6777 81.5146 42.4937L81.5076 42.4998Z" fill="#E76F51"/>
<path d="M77.963 53.7646H56.565C55.561 53.7646 54.749 54.5767 54.749 55.5807V76.9816C54.749 77.9866 55.561 78.7986 56.565 78.7986H77.963C78.967 78.7986 79.779 77.9866 79.779 76.9816V55.5807C79.779 54.5767 78.967 53.7646 77.963 53.7646Z" fill="#41B1A0"/>
<path d="M36.445 51.4092C35.738 50.7022 34.585 50.7022 33.878 51.4092L20.291 64.9982C19.584 65.7052 19.584 66.8582 20.291 67.5652L33.878 81.1552C34.585 81.8622 35.738 81.8622 36.445 81.1552L50.032 67.5652C50.739 66.8582 50.739 65.7052 50.032 64.9982L36.445 51.4092Z" fill="#E76F51"/>
</svg>
