<svg width="101" height="101" viewBox="0 0 101 101" fill="none" xmlns="http://www.w3.org/2000/svg">
<path d="M1.75781 50.6826C1.75781 23.6206 23.6958 1.68262 50.7578 1.68262C77.8198 1.68262 99.7578 23.6206 99.7578 50.6826C99.7578 77.7446 77.8198 99.6826 50.7578 99.6826C23.6958 99.6826 1.75781 77.7446 1.75781 50.6826Z" fill="#131313" fill-opacity="0.89"/>
<path d="M24.6152 62.6528V79.0358C24.6152 79.6608 25.1212 80.1828 25.7542 80.1828H33.6502C34.2712 80.1828 34.7892 79.6738 34.7892 79.0358V54.8418L29.0552 60.6178C27.8392 61.8308 26.2862 62.5338 24.6152 62.6528Z" fill="#E76F51"/>
<path d="M38.7227 54.7109V79.0339C38.7227 79.6599 39.2287 80.1819 39.8617 80.1819H47.7577C48.3787 80.1819 48.8967 79.6729 48.8967 79.0339V62.2089C47.0977 62.1699 45.4147 61.4519 44.1457 60.1739L38.7227 54.7109Z" fill="#41B1A0"/>
<path d="M52.832 61.0739V79.0339C52.832 79.6599 53.337 80.1819 53.971 80.1819H61.866C62.487 80.1819 63.005 79.6729 63.005 79.0339V51.0469L53.958 60.1599C53.609 60.5119 53.233 60.8139 52.832 61.0739Z" fill="#E76F51"/>
<path d="M76.3495 37.5908L66.9395 47.0698V79.0338C66.9395 79.6598 67.4445 80.1818 68.0785 80.1818H75.9735C76.5955 80.1818 77.1125 79.6728 77.1125 79.0338V38.3088C76.8535 38.0878 76.6595 37.8908 76.5175 37.7608L76.3495 37.5908Z" fill="#41B1A0"/>
<path d="M82.8102 20.7956C82.4342 20.3916 81.8652 20.1826 81.1402 20.1826H80.9332C77.2572 20.3526 73.5942 20.5346 69.9182 20.7046C69.4262 20.7306 68.7532 20.7566 68.2222 21.2906C68.0542 21.4606 67.9242 21.6566 67.8212 21.8906C67.2772 23.0766 68.0402 23.8456 68.4032 24.2116L69.3232 25.1506C69.9562 25.8026 70.6042 26.4546 71.2512 27.0936L49.0412 49.4816L39.0622 39.4296C38.4672 38.8296 37.6632 38.4906 36.8102 38.4906C35.9572 38.4906 35.1662 38.8296 34.5712 39.4296L21.2772 52.8066C20.0352 54.0586 20.0352 56.0796 21.2772 57.3306L21.8722 57.9306C22.4672 58.5296 23.2712 58.8696 24.1242 58.8696C24.9772 58.8696 25.7682 58.5296 26.3632 57.9306L36.8092 47.4076L46.7872 57.4606C47.3822 58.0596 48.1862 58.3996 49.0392 58.3996C49.8922 58.3996 50.6832 58.0596 51.2912 57.4606L76.3502 32.2166L79.1842 35.0596C79.5212 35.3986 79.9862 35.8676 80.6992 35.8676C80.9972 35.8676 81.2942 35.7896 81.6042 35.6196C81.8112 35.5036 81.9922 35.3726 82.1482 35.2156C82.7052 34.6546 82.8082 33.9376 82.8342 33.3766C82.9382 30.9776 83.0542 28.5786 83.1712 26.1656L83.3402 22.5536C83.3782 21.7976 83.2102 21.2106 82.8102 20.7936V20.7956Z" fill="#E76F51"/>
</svg>
