<svg width="101" height="101" viewBox="0 0 101 101" fill="none" xmlns="http://www.w3.org/2000/svg">
<g clip-path="url(#clip0_6_51)">
<path d="M2.75781 51.6826C2.75781 24.6206 24.6958 2.68262 51.7578 2.68262C78.8198 2.68262 100.758 24.6206 100.758 51.6826C100.758 78.7446 78.8198 100.683 51.7578 100.683C24.6958 100.683 2.75781 78.7446 2.75781 51.6826Z" fill="#131313" fill-opacity="0.89"/>
<path d="M66.8171 41.8926C58.0951 41.8926 50.9961 48.9906 50.9961 57.7126C50.9961 66.4346 58.0951 73.5326 66.8171 73.5326C75.5391 73.5326 82.7541 66.4346 82.7541 57.7126C82.7541 48.9906 75.5391 41.8926 66.8171 41.8926ZM68.6261 66.1876C68.6261 66.1876 68.5921 66.1876 68.5781 66.1946V68.2636C68.5781 69.2366 67.7901 70.0246 66.8171 70.0246C65.8441 70.0246 65.0561 69.2366 65.0561 68.2636V66.1876C63.8981 65.7976 62.7881 65.0576 61.8431 63.9266C61.2191 63.1866 61.3151 62.0766 62.0621 61.4536C62.8021 60.8296 63.9191 60.9256 64.5351 61.6726C65.4671 62.7826 66.5161 63.2216 67.4201 62.8996C68.1121 62.6456 68.5781 61.9806 68.5781 61.2476C68.5781 60.2746 67.7901 59.4876 66.8171 59.4876C63.9121 59.4876 61.5411 57.1236 61.5411 54.2116C61.5411 52.0876 62.8021 50.1826 64.7611 49.3536C64.8571 49.3126 64.9601 49.3126 65.0561 49.2786V47.1816C65.0561 46.2086 65.8441 45.4206 66.8171 45.4206C67.7901 45.4206 68.5781 46.2086 68.5781 47.1816V49.2856C69.4891 49.5936 70.3731 50.0796 71.1681 50.8476C71.8671 51.5186 71.8801 52.6356 71.2091 53.3346C70.5371 54.0336 69.4211 54.0466 68.7221 53.3756C67.8651 52.5466 66.9201 52.2586 66.1391 52.5946C65.4881 52.8686 65.0631 53.5056 65.0631 54.2116C65.0631 55.1846 65.8511 55.9726 66.8241 55.9726C69.7291 55.9726 72.1001 58.3366 72.1001 61.2476C72.1001 63.4546 70.7091 65.4476 68.6331 66.2016L68.6261 66.1876Z" fill="#E76F51"/>
<path d="M24.5149 59.4736C23.5419 59.4736 22.7539 60.2616 22.7539 61.2346V78.9246C22.7539 79.8976 23.5419 80.6856 24.5149 80.6856H29.7909V59.4736H24.5149Z" fill="#41B1A0"/>
<path d="M64.4455 31.6565L52.1405 21.1115C51.4825 20.5435 50.5096 20.5435 49.8516 21.1115L37.5465 31.6565C36.9845 32.1355 36.7855 32.9105 37.0395 33.6025C37.2925 34.2945 37.9505 34.7535 38.6905 34.7535H43.9665V80.6855H56.2715C57.2445 80.6855 58.0325 79.8975 58.0325 78.9245V74.9165C51.7835 71.7105 47.4875 65.2145 47.4875 57.7195C47.4875 50.2235 51.7835 43.7285 58.0325 40.5225V34.7535H63.3085C64.0415 34.7535 64.6996 34.2945 64.9596 33.6025C65.2136 32.9105 65.0145 32.1355 64.4525 31.6565H64.4455Z" fill="#41B1A0"/>
<path d="M35.1829 45.4072C34.2099 45.4072 33.4219 46.1952 33.4219 47.1682V80.6782H40.4519V45.4072H35.1759H35.1829Z" fill="#E76F51"/>
</g>
<defs>
<clipPath id="clip0_6_51">
<rect width="100" height="100" fill="white" transform="translate(0.757812 0.682617)"/>
</clipPath>
</defs>
</svg>
