<svg width="101" height="101" viewBox="0 0 101 101" fill="none" xmlns="http://www.w3.org/2000/svg">
<path d="M1.75781 50.6826C1.75781 23.6206 23.6958 1.68262 50.7578 1.68262C77.8198 1.68262 99.7578 23.6206 99.7578 50.6826C99.7578 77.7446 77.8198 99.6826 50.7578 99.6826C23.6958 99.6826 1.75781 77.7446 1.75781 50.6826Z" fill="#131313" fill-opacity="0.89"/>
<path d="M75.0632 42.0506C75.0522 41.8096 74.9072 41.5896 74.6822 41.4936L67.8272 38.5996L84.4062 27.9776C84.5942 27.8496 84.6962 27.6246 84.6742 27.3986C84.6532 27.1736 84.5022 26.9756 84.2932 26.8846L76.9972 19.6446C76.7772 19.5536 76.5242 19.5906 76.3422 19.7466L53.0592 39.5586C52.8922 39.6986 52.8112 39.9176 52.8442 40.1326C52.8762 40.3466 53.0212 40.5286 53.2202 40.6146L59.1722 43.1226L39.5532 61.4566C39.3322 61.6706 39.3002 62.0186 39.4832 62.2706C39.5532 62.3676 39.6442 62.4366 39.7462 62.4846C39.9132 62.5546 40.1062 62.5546 40.2782 62.4686L74.7192 42.6406C74.9402 42.5276 75.0692 42.3026 75.0632 42.0616V42.0506Z" fill="#E76F51"/>
<path d="M19.5196 40.6945C14.6626 53.9105 19.6696 68.9315 31.4996 76.6065C46.9656 86.6495 67.2946 80.8825 75.4496 65.0305L82.8096 68.6965C83.2176 68.8995 83.6906 68.4975 83.6096 68.0265L80.0486 47.3725C79.9836 47.0235 79.6136 46.8365 79.2966 46.9975L60.6066 56.5685C60.1766 56.7825 60.1546 57.4095 60.5466 57.6085L67.8906 61.2685C62.1046 72.3835 48.0616 76.5955 37.0216 70.1435C27.5236 64.6015 23.5486 52.6405 27.8306 42.5275C32.3646 31.8095 44.2206 26.6805 54.8476 30.0035C56.8186 30.6195 58.9466 29.6875 59.8646 27.8545C61.0086 25.5715 59.8646 22.7795 57.4256 22.0075C42.3026 17.2385 25.3266 24.9125 19.5196 40.6945Z" fill="#41B1A0"/>
</svg>
