<svg width="101" height="101" viewBox="0 0 101 101" fill="none" xmlns="http://www.w3.org/2000/svg">
<path d="M1.75781 50.6826C1.75781 23.6206 23.6958 1.68262 50.7578 1.68262C77.8198 1.68262 99.7578 23.6206 99.7578 50.6826C99.7578 77.7446 77.8198 99.6826 50.7578 99.6826C23.6958 99.6826 1.75781 77.7446 1.75781 50.6826Z" fill="#131313" fill-opacity="0.89"/>
<path d="M15.7578 72.6755V25.6875H84.7578V72.6755H15.7578Z" fill="black"/>
<path d="M22.479 39.9694C23.728 41.2024 25.742 41.2024 26.991 39.9694L36.016 31.0614C37.265 29.8284 37.265 27.8394 36.016 26.6074C34.768 25.3744 32.753 25.3744 31.504 26.6074L24.735 33.2884L22.479 31.0614C21.23 29.8284 19.215 29.8284 17.966 31.0614C16.717 32.2944 16.717 34.2824 17.966 35.5154L22.479 39.9694Z" fill="#41B1A0"/>
<path d="M67.4243 39.9694C68.6733 41.2024 70.6883 41.2024 71.9373 39.9694L80.9623 31.0614C82.2113 29.8284 82.2113 27.8394 80.9623 26.6074C79.7133 25.3744 77.6983 25.3744 76.4493 26.6074L69.6803 33.2884L67.4243 31.0614C66.1753 29.8284 64.1603 29.8284 62.9123 31.0614C61.6633 32.2944 61.6633 34.2824 62.9123 35.5154L67.4243 39.9694Z" fill="#41B1A0"/>
<path d="M44.9517 39.9694C46.2007 41.2024 48.2157 41.2024 49.4647 39.9694L58.4897 31.0614C59.7387 29.8284 59.7387 27.8394 58.4897 26.6074C57.2407 25.3744 55.2257 25.3744 53.9767 26.6074L47.2077 33.2884L44.9517 31.0614C43.7027 29.8284 41.6877 29.8284 40.4387 31.0614C39.1897 32.2944 39.1897 34.2824 40.4387 35.5154L44.9517 39.9694Z" fill="#E76F51"/>
<path d="M53.4867 47.4004H35.3467L42.6817 58.9794C43.0887 59.6264 43.0887 60.4504 42.6817 61.0974L35.3467 72.6754H53.4867L61.4907 60.0414L53.4867 47.4074V47.4004Z" fill="#41B1A0"/>
<path d="M30.5718 47.4004H17.7798C16.6618 47.4004 15.7578 48.2924 15.7578 49.3964V70.6804C15.7578 71.7834 16.6618 72.6754 17.7798 72.6754H30.5718L38.5758 60.0414L30.5718 47.4074V47.4004Z" fill="#E76F51"/>
<path d="M84.448 58.9852L77.706 48.3472C77.334 47.7612 76.692 47.4072 75.995 47.4072H58.248L65.583 58.9852C65.99 59.6322 65.99 60.4572 65.583 61.1042L58.248 72.6822H75.995C76.692 72.6822 77.341 72.3282 77.706 71.7422L84.448 61.1042C84.855 60.4572 84.855 59.6322 84.448 58.9852Z" fill="#E76F51"/>
</svg>
