<svg width="106" height="107" viewBox="0 0 106 107" fill="none" xmlns="http://www.w3.org/2000/svg">
<path d="M2.75781 51.6826C2.75781 24.6206 24.6958 2.68262 51.7578 2.68262C78.8198 2.68262 100.758 24.6206 100.758 51.6826C100.758 78.7446 78.8198 100.683 51.7578 100.683C24.6958 100.683 2.75781 78.7446 2.75781 51.6826Z" fill="#131313" fill-opacity="0.89"/>
<path d="M79.7545 29.8777L76.4715 26.6107V16.8027L66.2515 27.3327L65.5195 35.6837L54.9375 46.2137H53.1115C49.0965 46.2137 45.8125 49.4807 45.8125 53.4757C45.8125 57.4717 49.0965 60.7387 53.1115 60.7387C57.1265 60.7387 60.4105 57.4717 60.4105 53.4757C60.4105 52.7477 60.4105 52.3867 60.0475 51.6587L70.6295 41.1287L79.0225 40.4007L89.6045 29.8707H79.7475L79.7545 29.8777Z" fill="#E76F51"/>
<path d="M72.8247 44.4023H72.4617L67.3527 49.8483C67.7147 50.9373 67.7147 52.3863 67.7147 53.4823C67.7147 61.4733 61.1487 68.0073 53.1177 68.0073C45.0867 68.0073 38.5207 61.4733 38.5207 53.4823C38.5207 45.4913 45.0867 38.9573 53.1177 38.9573C54.5747 38.9573 55.6687 39.3183 56.7707 39.3183L62.2427 33.8733V33.5123C59.3217 32.4233 56.4007 31.6953 53.1177 31.6953C41.0717 31.6953 31.2217 41.5033 31.2217 53.4823C31.2217 65.4623 41.0787 75.2703 53.1177 75.2703C65.1567 75.2703 75.0137 65.4623 75.0137 53.4823C75.0137 50.2153 74.2817 47.3093 72.8247 44.4023Z" fill="#41B1A0"/>
<path d="M86.3282 38.5909L80.8552 43.6749C81.5872 46.5819 82.3122 49.8489 82.3122 53.4829C82.3122 69.4649 69.1722 82.5339 53.1182 82.5339C37.0642 82.5339 23.9172 69.4649 23.9172 53.4829C23.9172 37.5019 37.0572 24.4259 53.1182 24.4259C56.4012 24.4259 59.6852 25.1549 62.9752 26.2439V25.8829L68.4472 20.4379C63.7002 18.2599 58.5902 17.1709 53.1182 17.1709C33.0422 17.1639 16.6182 33.5059 16.6182 53.4829C16.6182 73.4609 33.0422 89.8029 53.1182 89.8029C73.1942 89.8029 89.6182 73.4609 89.6182 53.4829C89.6182 48.0379 88.5242 42.9539 86.3352 38.5909H86.3282Z" fill="#E76F51"/>
</svg>
