
<svg xmlns="http://www.w3.org/2000/svg" xmlns:xlink="http://www.w3.org/1999/xlink" viewBox="0 0 25 25"><g id="ss10727558600_1"><path d="M 0 25 L 0 0 L 25 0 L 25 25 Z" fill="transparent"></path><path d="M 12.5 2.344 C 10.491 2.344 8.528 2.939 6.857 4.055 C 5.187 5.171 3.886 6.758 3.117 8.613 C 2.348 10.469 2.147 12.511 2.539 14.481 C 2.931 16.451 3.898 18.261 5.318 19.682 C 6.739 21.102 8.549 22.069 10.519 22.461 C 12.489 22.853 14.531 22.652 16.387 21.883 C 18.242 21.114 19.829 19.813 20.945 18.142 C 22.061 16.472 22.656 14.509 22.656 12.5 C 22.653 9.807 21.582 7.226 19.678 5.322 C 17.774 3.418 15.193 2.347 12.5 2.344 Z M 18.276 10.874 L 13.769 12.805 L 17.005 16.687 C 17.137 16.847 17.201 17.052 17.182 17.259 C 17.164 17.465 17.064 17.655 16.904 17.788 C 16.745 17.921 16.54 17.985 16.333 17.966 C 16.127 17.947 15.936 17.847 15.804 17.687 L 12.5 13.721 L 9.194 17.687 C 9.062 17.847 8.871 17.947 8.665 17.966 C 8.458 17.985 8.253 17.921 8.094 17.788 C 7.934 17.655 7.834 17.465 7.816 17.259 C 7.797 17.052 7.861 16.847 7.993 16.687 L 11.23 12.805 L 6.724 10.874 C 6.626 10.836 6.538 10.778 6.463 10.705 C 6.389 10.632 6.329 10.544 6.289 10.448 C 6.249 10.351 6.228 10.248 6.229 10.143 C 6.229 10.039 6.251 9.936 6.292 9.839 C 6.333 9.743 6.393 9.657 6.469 9.584 C 6.544 9.512 6.633 9.455 6.731 9.418 C 6.828 9.38 6.932 9.363 7.037 9.366 C 7.141 9.37 7.244 9.394 7.339 9.438 L 11.719 11.315 L 11.719 6.836 C 11.719 6.629 11.801 6.43 11.948 6.284 C 12.094 6.137 12.293 6.055 12.5 6.055 C 12.707 6.055 12.906 6.137 13.052 6.284 C 13.199 6.43 13.281 6.629 13.281 6.836 L 13.281 11.315 L 17.661 9.438 C 17.756 9.394 17.859 9.37 17.963 9.366 C 18.068 9.363 18.172 9.38 18.269 9.418 C 18.367 9.455 18.456 9.512 18.531 9.584 C 18.607 9.657 18.667 9.743 18.708 9.839 C 18.749 9.936 18.77 10.039 18.771 10.143 C 18.772 10.248 18.751 10.351 18.711 10.448 C 18.671 10.544 18.611 10.632 18.537 10.705 C 18.462 10.778 18.374 10.836 18.276 10.874 Z" fill="rgb(55, 161, 146)"></path></g></svg>